<svg xmlns="http://www.w3.org/2000/svg" viewBox="0 0 24 24" fill="#25D366"><path d="M20.5 3.5A11.9 11.9 0 0012 0C5.4 0 .3 5.1.3 11.6c0 2 0.5 3.8 1.4 5.4L0 24l7.6-2.1c1.5 0.8 3.2 1.3 4.8 1.3 6.6 0 11.7-5.1 11.7-11.7 0-3.1-1.2-6-3.6-8.0zM12 21a9 9 0 01-4.7-1.3l-0.3-0.2-4.5 1.2 1.2-4.3-0.2-0.4A9 9 0 1121 12a9 9 0 01-9 9zM17 13.2c-0.3-0.1-2-1-2.3-1.2-0.3-0.2-0.5-0.2-0.8 0-0.3 0.2-0.9 0.7-1.1 1-0.1 0.3 0 0.6 0.2 0.9 0.2 0.3 0.8 1.1 1.7 1.8 0.9 0.7 1.7 1.1 2.1 1.3 0.4 0.2 0.8 0.1 1-0.2 0.2-0.3 0.8-1 1-1.4 0.2-0.4 0.2-0.7 0-0.9-0.2-0.3-0.5-0.5-0.8-0.6z"/></svg>